<svg xmlns="http://www.w3.org/2000/svg" fill="none" viewBox="0 0 296 608" height="608" width="296">
<g opacity="0.4">
<rect stroke-dasharray="3 6" stroke-linejoin="round" stroke-linecap="round" stroke-width="2" stroke="#1E1E1E" fill="#CCCCCC" rx="34" height="115" width="114" y="13" x="13"></rect>
<path stroke-dasharray="3.14 6.29" stroke-linejoin="round" stroke-linecap="round" stroke="#1E1E1E" d="M114.243 39.9492C114.259 34.4785 110.485 29.6297 105.177 28.3016C97.5366 26.3824 90.159 32.177 90.2112 40.0536C90.2926 47.8442 97.6211 53.496 105.177 51.5967C110.485 50.2686 114.259 45.4198 114.243 39.9492Z"></path>
<path stroke-dasharray="3.12 6.24" stroke-linejoin="round" stroke-linecap="round" stroke="#1E1E1E" d="M94.5899 66.2843C104.08 66.2551 113.141 71.1577 118.306 79.1187C127.781 93.6727 122.106 113.197 106.306 120.406C98.9642 123.777 90.2155 123.779 82.8717 120.406C67.0724 113.198 61.3977 93.6727 70.8726 79.1187C76.0393 71.1577 85.0996 66.2551 94.5899 66.2843Z"></path>
<path stroke-dasharray="3.12 6.24" stroke-linejoin="round" stroke-linecap="round" stroke="#1E1E1E" d="M74.5994 48.3272C74.6286 38.8369 69.726 29.7765 61.765 24.6114C47.2125 15.1364 27.6868 20.8113 20.4781 36.6105C17.1064 43.9528 17.1048 52.7015 20.4781 60.0453C27.6853 75.8446 47.211 81.5194 61.765 72.0445C69.726 66.8779 74.6301 57.8175 74.5994 48.3272Z"></path>
<path stroke-dasharray="3.05 6.1" stroke-linejoin="round" stroke-linecap="round" stroke="#1E1E1E" d="M46.4557 99.2923C46.4573 98.3266 46.1271 97.3639 45.5329 96.6039C44.9418 95.8408 44.0897 95.2834 43.1531 95.0485C40.374 94.3468 37.6778 96.4641 37.7008 99.3307C37.7269 102.165 40.4047 104.232 43.1531 103.536C44.0897 103.301 44.9418 102.744 45.5329 101.981C46.1271 101.221 46.4573 100.258 46.4557 99.2923Z"></path>
</g>
<rect stroke-width="2" stroke="#1E1E1E" rx="46.7769" height="605" width="293" y="1" x="1"></rect>
</svg>
